<svg xmlns="http://www.w3.org/2000/svg" viewBox="0 0 1000 880" enable-background="new 0 0 1000 880"><style type="text/css">.st0{fill:#FFFFFF;}</style><path class="st0" d="M669.3 437.4l-1.5 1 1.8.3c.3-.6-.2-.3.5-.5-.5-.9.1-.3-.8-.8zm314.1 33.1c9.1-.2 16.5-7.5 16.6-16.6s-7.1-16.6-16.2-17c9-1 15.8-8.9 15.1-18s-8.5-15.9-17.6-15.6c8.9-1.7 14.9-10.2 13.5-19.2-1.5-9-9.8-15.2-18.8-14 8.7-2.5 14-11.4 11.8-20.3s-11.2-14.4-20.2-12.3c8.6-3.1 13.2-12.6 10.2-21.3-3-8.7-12.3-13.3-21.1-10.6 8.3-3.9 12-13.6 8.3-22-3.7-8.3-13.4-12.2-21.8-8.9 7.9-4.5 10.7-14.5 6.4-22.5s-14.3-11.1-22.4-7.1c7.4-5.2 9.5-15.3 4.5-22.9-5-7.6-15.1-9.9-22.8-5.3 7-5.7 8.2-16 2.6-23.2-5.5-7.2-15.8-8.7-23.1-3.5 6.5-6.2 6.9-16.5.8-23.3-6.1-6.7-16.3-7.5-23.3-1.8 6-6.7 5.6-17-1-23.2-6.6-6.3-17-6.3-23.5.1 5.6-7.1 4.5-17.5-2.5-23.3s-17.4-5-23.5 1.8c5.1-7.5 3.3-17.7-4.2-23-7.4-5.3-17.7-3.8-23.3 3.4 4.5-7.8 2-17.9-5.8-22.7s-18-2.5-23 5c4-8.1.8-18-7.3-22.3-8.1-4.2-18.1-1.3-22.6 6.5 3.4-8.4-.4-18-8.8-21.7-8.4-3.7-18.1-.1-22.1 8 2.8-8.6-1.7-17.9-10.2-21-8.6-3.1-18.1 1.1-21.5 9.5 2.3-8.8-2.8-17.8-11.6-20.3-8.8-2.6-17.9 2.3-20.8 10.8 1.7-8.9-4-17.5-12.9-19.5s-17.8 3.4-20.1 12.1c1.1-9-5.1-17.2-14.1-18.7-9-1.4-17.5 4.5-19.2 13.4.5-9-6.2-16.9-15.3-17.7-9.1-.8-17.2 5.6-18.3 14.5 0-9-7.3-16.4-16.4-16.7-9.1-.3-16.8 6.7-17.4 15.7-.6-9-8.3-16-17.4-15.7s-16.3 7.7-16.4 16.7c-1.2-8.9-9.2-15.4-18.3-14.6-9.1.8-15.8 8.7-15.3 17.7C431.3 11 422.8 5 413.8 6.4s-15.3 9.7-14.2 18.6c-2.3-8.7-11.1-14.2-20-12.2S365 23.4 366.7 32.3c-2.8-8.6-12-13.4-20.8-10.9C337.1 24 332 33 334.3 41.7c-3.4-8.4-12.9-12.6-21.5-9.5s-13.1 12.5-10.3 21c-3.9-8.1-13.7-11.8-22.1-8.1-8.4 3.9-12.2 13.5-8.8 21.9-4.5-7.9-14.5-10.8-22.6-6.6s-11.3 14.1-7.4 22.2c-5-7.6-15.2-9.8-23-5.1-7.8 4.8-10.3 14.8-5.8 22.7-5.5-7.2-15.8-8.8-23.3-3.4-7.4 5.3-9.3 15.5-4.2 23-6-6.8-16.4-7.6-23.5-1.8-7.1 5.9-8.2 16.4-2.3 23.6-6.5-6.6-17.1-6.8-23.8-.4-6.7 6.4-6.9 16.9-.7 23.6-7-6-17.5-5.4-23.7 1.4-6.2 6.8-5.7 17.4 1.1 23.6-7.4-5.5-17.9-4-23.5 3.2-5.6 7.3-4.3 17.7 2.8 23.4-7.8-4.8-18.1-2.6-23.1 5.1-5 7.7-3 17.9 4.6 23-8.1-4.1-18.2-1.1-22.5 7-4.4 8-1.5 18 6.3 22.6-8.4-3.4-18.1.5-21.8 8.8-3.7 8.3-.1 18 8.1 21.9-8.7-2.6-17.9 2-20.9 10.6s1.4 17.9 9.8 21.1c-8.8-1.8-17.6 3.6-19.8 12.4s3 17.8 11.7 20.3c-9-1.2-17.4 5-18.9 14s4.5 17.5 13.4 19.2C9.5 402 1.7 408.9 1 417.9c-.7 9.1 6 17.1 15.1 18-9.1.3-16.4 7.8-16.3 17 .1 9.1 7.4 16.5 16.6 16.7-9 1.1-15.6 9.2-14.8 18.3.9 9.1 8.8 15.8 18 15.2-8.9 1.9-14.8 10.5-13.2 19.5s10.2 15 19.2 13.6c-8.7 2.6-13.8 11.7-11.4 20.5s11.4 14.1 20.3 11.9c-8.5 3.3-12.8 12.8-9.7 21.4 3.2 8.6 12.6 13.1 21.2 10.2-8.2 4-11.7 13.8-7.8 22.1s13.6 12 22 8.4c-7.8 4.7-10.5 14.7-6 22.7s14.6 10.8 22.6 6.6c-7.4 5.3-9.3 15.5-4.1 23.1 5.1 7.6 15.4 9.6 23.1 4.8-7 5.9-8 16.2-2.3 23.3s16.1 8.4 23.4 3c-6.5 6.4-6.8 16.7-.5 23.4 6.2 6.7 16.6 7.2 23.5 1.2-6 6.8-5.5 17.2 1.2 23.4s17.1 6 23.5-.5c-5.5 7.2-4.2 17.5 2.9 23.2 7.1 5.7 17.5 4.7 23.4-2.1-4.9 7.6-2.9 17.8 4.6 22.9 7.5 5.2 17.8 3.5 23.2-3.8-4.4 7.9-1.7 17.9 6.2 22.6 7.9 4.7 18 2.2 22.9-5.4-3.8 8.2-.5 18 7.7 22.1 8.2 4.1 18.1 1 22.5-6.9-3.3 8.4.7 18 9.2 21.6 8.4 3.6 18.1-.2 21.9-8.4-2.7 8.6 1.9 17.9 10.6 20.9 8.8 3.1 18.5-1.6 21.5-10.3 0-.1 0-.2.1-.3.2.1.5.1.7.2-.1.5-.3 1-.4 1.5s-.2 1.1-.2 1.6c-.1.5-.1 1.1-.1 1.7 0 .6 0 1.1.1 1.7 0 .5.1 1.1.2 1.6s.3 1.1.4 1.6c.2.5.3 1 .6 1.5.2.5.4 1 .7 1.5.3.5.5 1 .9 1.4.3.5.6.9 1 1.3.3.4.7.8 1.1 1.2s.8.8 1.2 1.1c.4.3.9.7 1.3 1 .5.3.9.6 1.4.8.5.3 1 .5 1.5.7s1 .4 1.6.6c.5.2 1.1.3 1.6.4.5.1 1.1.2 1.6.2.5.1 1.1.1 1.7.1s1.1 0 1.7-.1c.5-.1 1.1-.1 1.6-.2s1.1-.2 1.6-.4 1.1-.3 1.6-.6c.5-.2 1-.4 1.5-.7.5-.2 1-.5 1.4-.8.5-.3.9-.6 1.3-1s.9-.7 1.2-1.1c.4-.4.8-.8 1.1-1.2.4-.4.7-.9 1-1.3.3-.5.6-.9.8-1.4.3-.5.5-1 .7-1.5l.6-1.5c.2-.5.3-1.1.4-1.6s.2-1.1.2-1.6c.1-.5.1-1.1.1-1.7 0-.5 0-1.1-.1-1.7-.1-.5-.1-1.1-.2-1.6s-.2-1.1-.4-1.6-.3-1-.6-1.5c-.2-.5-.5-1-.7-1.5-.3-.5-.5-1-.9-1.4-.3-.5-.6-.9-1-1.3s-.7-.8-1.1-1.2-.8-.8-1.2-1.1c-.4-.3-.9-.7-1.3-1-.5-.3-.9-.6-1.4-.8-.5-.3-1-.5-1.5-.7s-1-.4-1.6-.6c-.5-.2-1.1-.3-1.6-.4-.5-.1-1.1-.2-1.6-.2-1.1-.1-2.2-.1-3.3 0-.5.1-1.1.1-1.6.2s-1.1.2-1.6.4-1.1.3-1.6.6c-.5.2-1 .4-1.5.7-.5.2-1 .5-1.4.8-.5.3-.9.6-1.3 1-.1.1-.2.2-.3.2-.2-.2-.4-.4-.5-.7 7.3-5.5 8.9-15.7 3.6-23.2-5.3-7.4-15.6-9.3-23.2-4.2-.2-.2-.3-.5-.5-.7 7.8-4.7 10.5-14.8 6-22.7-4.6-8-14.7-10.8-22.7-6.4-.1-.3-.3-.5-.4-.8 8.3-4 11.8-13.8 8-22.2-3.9-8.3-13.7-12-22.1-8.4-.1-.3-.2-.5-.3-.8 8.6-3.3 12.9-12.9 9.7-21.5-3.2-8.6-12.8-13.1-21.4-10l-.3-.8c8.8-2.7 13.8-11.9 11.2-20.8-2.6-8.8-11.8-13.9-20.7-11.5-.1-.3-.1-.6-.2-.9 9-2.1 14.6-11 12.7-19.9-2-9-10.8-14.7-19.8-12.9 0-.3-.1-.6-.2-.9 9.1-1.5 15.3-9.9 14-19s-9.7-15.4-18.9-14.3l-.1-.9c9.2-.8 16-8.8 15.4-17.9-.7-9.2-8.6-16.1-17.7-15.6v-.9c9.2-.1 16.6-7.4 16.7-16.6.1-9.2-7.1-16.7-16.3-17 0-.3 0-.6.1-.8.5.1 1.1.1 1.6.1 8.4 0 15.7-6.2 16.8-14.7 1.1-9-5.1-17.3-14.1-18.7.1-.3.1-.6.2-.8 1.4.3 2.8.5 4.1.5 7.3 0 14-4.7 16.2-12 2.6-8.6-2.1-17.7-10.5-20.7.1-.3.2-.5.3-.8 2.4 1.2 5 1.8 7.6 1.8 5.8 0 11.5-3 14.6-8.3 4.5-7.7 2.2-17.5-5.1-22.4l.5-.6c3.2 3 7.3 4.5 11.5 4.5 4.1 0 8.3-1.5 11.5-4.5 6.5-6.1 7.1-16.1 1.6-22.9.2-.2.4-.3.7-.5 3.2 5.2 8.7 8.1 14.4 8.1 2.7 0 5.4-.6 7.9-2 8-4.2 11.2-13.9 7.4-21.9.3-.1.6-.2.9-.4l.3.9c.2.5.4 1 .7 1.5.3.5.5 1 .8 1.4.3.5.6.9 1 1.3.3.4.7.8 1.1 1.2.4.4.8.8 1.2 1.1.4.3.9.7 1.3 1 .5.3.9.6 1.4.8.5.2 1 .5 1.5.7s1 .4 1.6.6c.5.2 1.1.3 1.6.4s1.1.2 1.6.2c.5.1 1.1.1 1.7.1.5 0 1.1 0 1.7-.1.5-.1 1.1-.1 1.6-.2s1.1-.2 1.6-.4 1-.3 1.6-.6c.5-.2 1-.5 1.5-.7.5-.3 1-.5 1.4-.8.5-.3.9-.6 1.3-1s.8-.7 1.2-1.1c.4-.4.8-.8 1.1-1.2.3-.4.7-.9 1-1.3.1-.1.2-.3.3-.5l.6.3c0 .1-.1.2-.2.2-4.5 8.1-1.5 18.4 6.6 22.9 2.6 1.4 5.4 2.1 8.2 2.1 6 0 11.7-3.1 14.8-8.7 0-.1.1-.2.1-.3l.6.3c0 .1-.1.2-.1.3-3.9 8.4-.3 18.4 8.2 22.4 2.3 1.1 4.7 1.6 7.1 1.6 6.4 0 12.5-3.6 15.4-9.7 0-.1.1-.2.1-.3l.6.3c0 .1-.1.2-.1.3-3.4 8.7 1 18.4 9.7 21.8 2 .8 4 1.1 6.1 1.1 6.8 0 13.2-4.1 15.8-10.8 0-.1.1-.2.1-.3l.6.2c0 .1-.1.2-.1.3-2.8 8.9 2.2 18.3 11.2 21.1 1.7.5 3.4.8 5 .8 7.2 0 13.9-4.6 16.1-11.9 0-.1 0-.2.1-.3.2.1.4.1.6.2 0 .1-.1.2-.1.3-2.2 9 3.4 18.1 12.5 20.3 1.3.3 2.6.5 3.9.5 7.6 0 14.6-5.2 16.4-12.9 0-.1 0-.2.1-.3.2 0 .4.1.6.1 0 .1 0 .2-.1.3-1.6 9.2 4.6 17.9 13.8 19.4 1 .2 1.9.2 2.8.2 8.1 0 15.3-5.8 16.7-14v-.3l.7.1v.3c-1 9.2 5.8 17.5 15.1 18.5.6.1 1.2.1 1.8.1 8.5 0 15.9-6.4 16.8-15.1v-.3h.7v.3c-.4 9.3 6.9 17.1 16.2 17.5h.7c9 0 16.5-7.1 16.9-16.2v-.3h.7v.3c.2 9.2 7.7 16.4 16.9 16.4h.4c9.3-.2 16.7-7.9 16.5-17.2v-.3h.7v.3c.8 8.8 8.2 15.4 16.8 15.4.5 0 1 0 1.5-.1 9.3-.8 16.2-9 15.4-18.2v-.3l.7-.1c0 .3.1.7.2 1 .1.5.2 1.1.4 1.6s.3 1 .6 1.5c.2.5.4 1 .7 1.5s.5 1 .8 1.4c.3.5.6.9 1 1.3.3.4.7.8 1.1 1.2.4.4.8.8 1.2 1.1.4.3.9.7 1.3 1 .5.3.9.6 1.4.8.5.3 1 .5 1.5.7s1 .4 1.6.6c.5.2 1.1.3 1.6.4s1.1.2 1.6.2c.5.1 1.1.1 1.7.1.5 0 1.1 0 1.7-.1h.1c-6.4 3.4-10.1 10.8-8.5 18.3 1.6 7.6 8.1 12.9 15.6 13.3-7.1 2.4-12 9.4-11.4 17.2.6 7.9 6.5 14.1 14 15.4-7.5 1.6-13.1 8.2-13.3 16.1-.2 8 5.3 14.8 12.8 16.7-7.6 1-13.9 7.1-14.6 15.1-.8 8 4.2 15.2 11.5 17.6-7.7.4-14.4 6.1-15.7 14s3.1 15.4 10.3 18.3c-7.7-.1-14.7 5.2-16.6 13-1.8 7.8 2.1 15.6 9.1 19-7.7-.6-15.1 4.2-17.4 11.9-2.4 7.7 1.1 15.7 7.8 19.5-7.7-1.1-15.3 3.1-18.2 10.6s0 15.7 6.4 20c-7.5-1.7-15.5 2-18.9 9.2s-1.3 15.6 4.7 20.4c-7.3-2.2-15.5.8-19.5 7.7s-2.6 15.4 2.9 20.6c-7.1-2.8-15.4-.6-20.1 5.8-4.6 6.4-4.1 14.9.8 20.7-.5-.3-1-.5-1.5-.7s-1-.4-1.6-.6c-.5-.2-1.1-.3-1.6-.4-.5-.1-1.1-.2-1.6-.2-1.1-.1-2.2-.1-3.3 0-.5.1-1.1.1-1.6.2s-1.1.2-1.6.4-1.1.3-1.6.6c-.5.2-1 .4-1.5.7-.5.2-1 .5-1.4.8-.5.3-.9.6-1.3 1s-.8.7-1.2 1.1c-.4.4-.8.8-1.1 1.2s-.7.9-1 1.3-.6.9-.8 1.4-.5 1-.7 1.5l-.6 1.5c-.2.5-.3 1.1-.4 1.6-.1.5-.2 1.1-.3 1.6 0 .5-.1 1.1-.1 1.7 0 .6 0 1.1.1 1.7.1.5.1 1.1.3 1.6.1.5.2 1.1.4 1.6s.3 1 .6 1.5c.2.5.4 1 .7 1.5s.5 1 .8 1.4c.3.5.6.9 1 1.3.3.4.7.8 1.1 1.2.4.4.8.8 1.2 1.1s.9.7 1.3 1c.5.3.9.6 1.4.8.5.3 1 .5 1.5.7s1 .4 1.6.6c.5.2 1.1.3 1.6.4.5.1 1.1.2 1.6.2.5.1 1.1.1 1.7.1s1.1 0 1.7-.1c.5-.1 1.1-.1 1.6-.2s1.1-.2 1.6-.4 1.1-.3 1.6-.6c.5-.2 1-.4 1.5-.7.5-.2 1-.5 1.4-.8.5-.3.9-.6 1.3-1s.8-.7 1.2-1.1c.4-.4.8-.8 1.1-1.2s.7-.9 1-1.3c.3-.5.6-.9.8-1.4.3-.5.5-1 .7-1.5l.6-1.5c.2-.5.3-1.1.4-1.6.1-.5.2-1.1.2-1.6.1-.5.1-1.1.1-1.7 0-.5 0-1.1-.1-1.7 0-.5-.1-1.1-.2-1.6-.1-.3-.1-.5-.2-.8 2.5 6.7 9 11 15.8 11 1.8 0 3.7-.3 5.6-.9 8.6-3 13.3-12.3 10.6-20.9 3.8 8.2 13.5 12 21.9 8.4 8.4-3.5 12.5-13.1 9.2-21.6 4.3 8 14.3 11.1 22.5 7s11.5-13.9 7.7-22.1c4.9 7.6 15 10.1 22.9 5.4 7.9-4.7 10.6-14.7 6.1-22.6 5.4 7.3 15.7 9.1 23.2 3.9 7.5-5.2 9.5-15.4 4.6-23 5.9 6.9 16.3 7.9 23.5 2.2s8.4-16 2.9-23.3c6.4 6.5 16.8 6.8 23.6.5 6.7-6.2 7.2-16.6 1.2-23.4 6.8 6 17.3 5.5 23.5-1.2s6-17.1-.5-23.4c7.3 5.5 17.7 4.2 23.4-3 5.7-7.1 4.7-17.5-2.3-23.3 7.7 4.9 17.9 2.8 23.1-4.7 5.2-7.6 3.3-17.8-4.1-23.1 8 4.3 18.1 1.4 22.6-6.5s1.9-18-5.9-22.7c8.4 3.6 18.1-.1 22-8.4 3.9-8.3.4-18.1-7.8-22.1 8.6 2.9 18.1-1.6 21.2-10.2 3.2-8.6-1.1-18.1-9.6-21.4 8.9 2.1 17.9-3.1 20.3-11.9 2.4-8.8-2.7-17.9-11.4-20.5 9 1.4 17.6-4.6 19.2-13.6 1.7-9-4.2-17.6-13.1-19.5 9.1.6 17.1-6.1 18-15.2.8-9-5.7-17.1-14.8-18.2zm-130-7l-.5-1c.7.7.5.2.5 1zm-41.6-231.2c8.6 7.2 17.9 15.8 26.3 24 9.1 8.9 17.2 23.3 6.4 33-1.3 1.2-8.2 1.9-10.2 2.6-1.2-3.4-4.2-.6-6.7-2.3-2.4-1.6-4-3.8-6.9-5.6-5.9-3.6-5.9-11.1-13-13-7.2-2-20-1.1-26.1 1.5-.1.1-3.2 1.7-3.6.5-.8.7-3.1 2.9-5.1 2.3 11.3-6.1 22.9-13.5 32.2-22.2-2.7-9.3-23-26.1-30.4-34.5.6.2 1.2.3 1.8.5l-.3-.8c-1.3-.8-1.6-.9-2.6-2.6 4 .4 7.7 2.8 10.7 4.3l10.2 2.8c5.3 3.4 12.5 5.5 17.3 9.5zm-27.1 136.6l-.5-.3c-.2-.3-.3-.5-.5-.8.9.6.5.2 1 1.1zm-1.6.3c-1-.7-1.2-.9-1.5-2.3.5.7 1 1.5 1.5 2.3zm-4.3 7.1h-1l-.5-1c.8-1 .6-.3.5-1.3-1-.4-.4.2-.8-.8l.3.5c.2.1.3.2.5.3l1.8 1.3c-1.1.7-.7-.3-.8 1zm-2.8-3.8c-.4-.6-.9-1.2-1.3-1.8 1.3.4 1.5.9 2.3 1.8h-1zm-217.4 77.2c-3.8 6.2-5 11.8-8.2 16.4-2.9-.8-2.7.6-4.9 1.8-7.2-.8-15.5-2.7-18.9-6.4.2-3.1-5.1-6.3-6.7-9l-.5-9c-1.9-6.5-4.8-14.1-5.4-22-.3-4.3 13.8-25.1 16.9-32 7.1-15.8 11.1-33.2 14.3-48.8 1.5-7.3-1.3-12.9.3-18.9 6.1.6 16.3 4.8 20.7 10.2 1.4 1.7 2.2 4.7 4.1 6.7l-.5 1.5c0 3.2 2.1 10.2 3.6 14.3 1.5 4.1.5 9.2 1.8 13.8 7.9 28.5-3.2 59.6-16.6 81.4zm46.3-10.5c-.1-.2-.2-.3-.3-.5-.5-.3-1-.7-1.5-1 1 .3 2.1.5 1.8 1.5zm11.2 6.2v-.5l.3.3c1 .4.4-.1.8.8l-1.1-.6zm49.9-2.1c-1.7.3-4.5 2.1-7.4 1l2.3-1.8c.9.3 1.7.5 2.6.8l.3-1.3 2.6.3c-1 .6-.9.1-.4 1zm187.4 54.5l.3 3.1c-7.2 3.5-14.4 9.2-24 7.2-.5-.1-2.2-.4-2.6.5-1.8-1.8-15.1-4-19.4-5.6-3.4-1.3-9.3-5.3-13.3-7.4-22.9-12.2-42.8-27.3-61.4-44.5-6.7-7-13.3-14-19.9-21-2.3-2.9-4.8-8.2-7.9-9.5l-13 10c-2.7 2.1-7.5 2.3-10.5 5.4l-2.3-.5c-3.5 2-4.3 4-8.4 6.1-3.6 1.9-7-2-12 0-6.1 2.4-12.1 6-19.2 6.7-1.9-1.5-2.5-1.7-5.6-1v.3c.7.3 1.4.5 2 .8-7 .1-25.9-5.1-30.2-8.7.1-1.8-12-9.6-15.1-11v-.3l1-.8c1.2 1.2.2.8 1.8.8-1.2-2.9-3.4-4.9-4.9-6.9h.3c5.7 3 9.6 3.6 16.4 5.6-.4-.7-.9-1.4-1.3-2 13 7.8 26.2-1.1 38.9-3.1l-.5-.3-1.8-.5c2.3-1 4.7-.6 6.9-1.3 5.6-1.8 12.2-9 18.2-8.4-.2-1 .3-.3-.5-1 6.2-3.9 11.3-7.8 16.4-12.8l-1.8.3.3-.8c10.2-2.9-.2-15.6-3.8-22.5-10-18.8-19.8-42.3-29.7-62.4-3.2-.3-13.2 3.3-15.9 4.1-17.2 5.3-49.6 1.4-56-11.8 12.3-.4 23.4-8.7 30.4-10 .7-1.3 1.1-2 2-2.6l-.3 1 9.7-4.1c-.4-1-.5-.6 0-1.8-1.5.3-.9.3-2.3-.3l.3 1.3c-2.5.2-2.8 1.8-5.1 1.3.8-.5 9.5-7.2 8.4-9.2-.1.2-.2.3-.3.5l-1.3 1.3-1-.3.5-1.3h-1l-1 2.3c.9.2 1-.4.8.5-.4.7-.9 1.4-1.3 2l-1-.5.3-.8-2.6 1.5v-.3l.3-1c2.3-.9 1.4-1.2 3.3-.8l-.5-1.8c3.8-3.5 7.6-7.8 10-12l1 1c.1-.3.2-.7.3-1-.4-3.6 2.4-3.2 4.1-5.9h-1.3l2.6-2.6c0-.1-5.9-30.4-5.9-30.4 8.9-.1 13.1 5.8 20.5 10h.5c-.2-2.2 7.7-13 10.2-15.3-1.2-.5-.5.3-1-.8 1.1-.2.6.3 1.3-.8-.5 0-.2-.1 0-.5.8-6.2 8.3-13 11.3-19.4 6.5-14.5 15-29.7 19.4-46.8v-.3c-8-.2-46 4.8-49.1 7.9-6 6-7.9 28.3-9.7 34.3-1.1 3.6 1.5 8.8 1 11.5-.5 2.8-5.5 7.7-4.3 11.3l-5.6 4.6c-18.3 9.1-30.4-23.1-36.1-29.7l-.8.3c-7.5 20.5-21.1 32.8-43.5 22.2-8-3.7-15.7-4.7-21.7-10.5-.6-.6-3.7-.6-5.4-1.5l-5.4-5.1c-.9-.8-2 .7-2.8.3-4-2.1-8.5-6.4-9.7-11.8 4.7-4.8 22.5-8.3 29.2-5.9 11.2-3 24.7-4.2 33.8-9.5 2.4-1.4 17.1-5.2 16.6-6.9 1.2-2-.5-4-1-6.1-2-7.8-5.2-29.9-1-35h-.8v-.1c9.5.9 23.2 17.1 28.1 23.5 2 2.7 3.5 7.5 6.1 8.7 9.5-2.3 18.9-4.6 28.4-6.9 2.5-.4 8.2 0 11.3-1.8l5.1-6.6-2.8 6.1c14.1-1.1 31.1-4.3 44.2-5.4 3.2-10.7 7.7-22.9 10.5-33.2 1.7-6.3 1.5-16 .5-20.5-.1-.4-.6-2.3-.8-1.8-.8-5 2-7.2-.5-13l.3-.3 2.8 2c-.3-1.1-.5-2.2-.8-3.3.7.4 1.4.9 2 1.3-.2-.3-.3-.5-.5-.8v-.8c3.4 1.2 5.3 4.3 7.4 6.9.6.7 3.4 1.1 4.1 2 10.4 14.2 21 26.6 25.3 43.2 1.3 5.1-5.7 15.9-5.9 18.7.7.5.3.4 1 .5 3.5 1 9.3-1.6 13 .8 3.7 2.4 8.5 2.9 12.5 4.9 7.2 3.5 22.7 14.8 25.8 19.9 1.9 3.1 3.3 5.7 4.6 9.2l.3 4.1c-2 3.4-5.1 8.2-8.4 10.7-12.6 9.8-33.1-12.3-36.3-17.6-1.8-3-7.9-10.5-12.5-9.2-1.3.4-14.5 4.8-14.6 4.9-3.4 2.7-3.6 8.8-6.7 11.8-5 4.9-8.8 12.2-14.6 18.7l-1.8 5.9c-.4.6-5.8 7.2-6.7 5.4-2.5 3.3-4.9 6.7-7.4 10l1 .5c-5 .6-8.9 10.1-13 12.8-1 .3-.2.3-1.3-.3-1.3 5.6-2.5 5.7-8.7 10.2 1.2.8-.2.4-1 1.3.3.6.5 1.2.8 1.8l1.5-1.5c-.1.2-.2.3-.3.5l-2.3 3.1c1.8 3 4.6 5.7 7.2 7.4l7.2-4.1c1.3-1.1 1.5-3.1 3.1-4.1 11.5-6.8 21.5-9.9 36.3-10.7 14.8-.9 32.7 21.6 9.2 29.4.9 1.4.9 1.4-.3 2.6-11.4.6-23.2 13.9-31.7 19.4-3 1.9-13.3 4.2-14.1 5.9-2.4 5.4 3.4 13.2 3.8 18.7.6 7.9 13 45.5 20.5 51.4l.3-.3c5.8-15.1 15.2-31.3 21.2-46.5 2.7-6.8-1.2-17.3 1-21 7.4 1.7 12.3 7.7 15.9 11 8.5 8 13 15.6 16.1 25.6.8 2.7-1.2 7.6-1.3 11l-1.8 2.8c-2.5 8-7.4 14.9-12.5 21.2-.4 1.1-.9 2.2-1.3 3.3-5.2 6.1-12.6 14.1-15.9 22 16.5 18.7 36.3 34.2 56.3 48.6 4.6 3.3 12.6 7.5 16.9 10.2 2.6 1.6 5.8 1.6 7.4 3.6.3-.1.7-.2 1-.3l1-10.2-2-9.5c.7 1.2.6 2.1 1.8 2.8-6-20.8-7.5-32-17.4-49.4l-4.1-8.4-.3.8c-2.3-3.8-2.4-5.1-4.9-9h.3c1.6.4 2.8.3 2.8.3 1.1 2.6 1.4 5.1 3.1 7.2 1-.4.1-.4 1-.3.7-1.3-.5-.6-.8-1.5h-.8c1.2-.7.8-.6 2 0l-3.1-6.1 1-.3 13.8 20.7c-.7-8.6-10.5-18.4-14.1-27.6l1-.3h.3c1.2 4 13.1 16.5 16.6 22 8.3 13 17.5 25.4 27.9 38.1.6-.3 1.2-.5 1.8-.8l.3.8-.5 1-.5-1c-.1.3-.2.7-.3 1 .8.4 1.5.8 2.3 1.3l.5 1.8c1.5-.7 7.9 16.5 9.7 15.9.7.3 1.5 1.6 1.8 1 3.3 4.1 1.5 10.9 6.9 13l-.5-2h.8c.8 2 1.1 1.3 2.3 2.8 1.3 4.4 2.6 8.9 3.8 13.3l2.6 2c2.2 3.5-4.8 17-6.8 17.9zm-251.9-72.4c-1.5.3-4.2-1-5.4-2.3l5.4 2.3zm-2.8-2.8c2.1.3 3.6.7 4.9 1.8l-4.9-1.8zm7.4 2l.8.3c-.3-.1-.3.1-.8-.3zm45.8-7.9l.3-.5c.3.1.5.2.8.3l-1.1.2zm4.1-2.3h.8c-.7.3-.1.4-.8 0zm5.1-2.8h.8c-.7.3-.6.1-.8 0zm3.1-2l1 .5h-.8l-.2-.5zm7.9-4.9c-.7.3-.1.4-.8 0h.8zm-.5-1l3.3-1.8.8.3c-1.3 1-2.9 1.8-3.6 2l-.5-.5zm-69.8-110.8l.8.5c-.9-.1-.7.2-.8-.5zm3.6 0l-.3-1c.8.7.8.1.3 1zm-.3-2.3l.8-.8c0 .1.2 1.2-.8.8zm4.6-2.5v-1.3l1 1-.3.3h-.7zm163.2-12.3l-1.3.5.8-.8.5.3zM689.5 219v-.3l1.8-2.3c1 .7-.7 2-1.8 2.6zm-13.8 15.9c-.5.9-.2.6-1.3 1 .3-.3.5-.7.8-1h.5zm-2 2.8l-1.3.8.3-1c.4-.5.9-1 1.3-1.5.5.3.1.8-.3 1.7zm41.1 39.1l-1.8 1.5 1-1.5h.8zm-7.6 5.4l.3-1c-.2.5.1.4-.3 1zM792.3 408l1 .5h-.8l-.2-.5zm-8.2-34c1 .6.8.4 1 1.8l-.5-1-.5-.8zm-119.6 66.2l1-.3-.5-.3c-.2.3-.4.5-.5.6zm19.1 218c21.8-25.1 36.7-63.4 17.7-85.4-16.9-19.5-158.9-27.6-182.9 0-2.9 3.3-4.9 6.7-6.4 10.3-3.9-.5-7.9-.8-12.1-.8s-8.2.3-12.1.8c-1.4-3.5-3.5-7-6.4-10.3-23.9-27.6-166-19.5-182.9 0-19 22-4.1 60.3 17.7 85.4 21.8 25.1 124.1 19.7 141.5-.4 11.2-12.9 27.7-33 31.7-53 3.2-.5 6.7-.7 10.4-.7s7.2.3 10.4.7c4 20 20.5 40 31.7 53 17.6 20.1 119.9 25.5 141.7.4zm-46.5-233l1.8-1.1h-1l-.8 1.1zm-11.5-146.6l-.8 1.3 1.8-1-1-.3zm-6.4.5l-.5.5c.2 0 1.2-.6.5-.5zm-6.7-100.5c3.5-1 11-6.8 11.5-9.7-2.6 2.1-9.6 3.2-13 6.6l1.5 3.1zm4.4 99.5c.7.5.3.1.3.8l.3.3 1.5-1.5-2.1.4zm170.8 107.7c.8.3.1.4 1 0-1.3-.6-1.6-1.1-2.6-1.8.5 1.3.5 1.3 1.6 1.8zM633.8 273.5c-.8 2.1-8 4.1-6.7 6.9-2.7.7-3.1 2.7-5.1 2.6l.3-.3c.6-.7 1.2-1.4 1.8-2l-.5.5c-1.6.6-2.7 2-3.6 3.3 1.5-.6 1.3-1.1 2.6-.3-1.4.3-4.3 3-5.6 4.3 7.1-1.1 14.2-5.8 18.4-8.7-.3-.1-.7-.2-1-.3.5-.8 1-1.2 1-1.3.2-1.1-.4-4-1.6-4.7z"/></svg>